# ProBuilder 4.1.0
# https://unity3d.com/unity/features/worldbuilding/probuilder
# 2020/04/04 19:53:04

mtllib ./DragBar.mtl
o DragBar

g DragBar
v 0 0.13 0.202
v -5 0.13 0.202
v 0 0.86 0.202
v -5 0.86 0.202
v -5 0.13 -0.798
v -5 0.86 -0.798
v 0 0.13 -0.798
v 0 0.86 -0.798

vt 0 0
vt -5 0
vt 0 0.73
vt -5 0.73
vt -1 0
vt -1 0.73
vt 5 0
vt 5 0.73
vt 1 0
vt 1 0.73
vt 0 -1
vt 5 -1
vt -5 -1

vn 0 0 1
vn -1 0 0
vn 0 0 -1
vn 1 0 0
vn 0 1 0
vn 0 -1 0

usemtl ProBuilderDefault
f 3/3/1 4/4/1 2/2/1 1/1/1
f 4/3/2 6/6/2 5/5/2 2/1/2
f 6/8/3 8/3/3 7/1/3 5/7/3
f 8/10/4 3/3/4 1/1/4 7/9/4
f 8/11/5 6/12/5 4/7/5 3/1/5
f 1/1/6 2/2/6 5/13/6 7/11/6

g DragControl
v 0 0 0
v -0.3474016 0 0
v 0 1 0
v -0.3474016 1 0
v -0.3474016 0 -0.9999999
v -0.3474016 1 -0.9999999
v 0 0 -0.9999999
v 0 1 -0.9999999

vt 0 0
vt -0.3474016 0
vt 0 1
vt -0.3474016 1
vt -0.9999999 0
vt -0.9999999 1
vt 0.3474016 0
vt 0.3474016 1
vt 0.9999999 0
vt 0.9999999 1
vt 0 -0.9999999
vt 0.3474016 -0.9999999
vt -0.3474016 -0.9999999

vn 0 0 1
vn -1 0 0
vn 0 0 -1
vn 1 0 0
vn 0 1 0
vn 0 -1 0

usemtl DragControlMaterial
f 11/16/7 12/17/7 10/15/7 9/14/7
f 12/16/8 14/19/8 13/18/8 10/14/8
f 14/21/9 16/16/9 15/14/9 13/20/9
f 16/23/10 11/16/10 9/14/10 15/22/10
f 16/24/11 14/25/11 12/20/11 11/14/11
f 9/14/12 10/15/12 13/26/12 15/24/12

